<svg xmlns="http://www.w3.org/2000/svg" viewBox="0 0 720 280" width="100%" height="100%">
  <defs>
    <marker id="arrow" viewBox="0 0 10 10" refX="8" refY="5" markerWidth="6" markerHeight="6" orient="auto-start-reverse">
      <path d="M 0 0 L 10 5 L 0 10 z" fill="#1C2833" />
    </marker>
  </defs>

  <rect x="60" y="45" width="290" height="210" fill="#FAFAFA" stroke="#7F8C8D" stroke-width="1.5" stroke-dasharray="5,5" rx="8"/>
  <text x="70" y="65" font-family="sans-serif" font-size="14" font-weight="bold" fill="#7F8C8D">Régulateur</text>

  <rect x="380" y="15" width="200" height="135" fill="#FAFAFA" stroke="#7F8C8D" stroke-width="1.5" stroke-dasharray="5,5" rx="8"/>
  <text x="390" y="35" font-family="sans-serif" font-size="14" font-weight="bold" fill="#7F8C8D">Processus</text>

  <text x="25" y="85" font-family="sans-serif" font-size="12" fill="#2C3E50" text-anchor="middle">Consigne</text>
  <text x="25" y="105" font-family="sans-serif" font-size="16" font-style="italic" fill="#2C3E50" text-anchor="middle">y<tspan dy="4" font-size="12">c</tspan></text>
  <line x1="40" y1="100" x2="75" y2="100" stroke="#1C2833" stroke-width="2" marker-end="url(#arrow)"/>

  <rect x="80" y="75" width="90" height="50" rx="6" fill="#FFF4E6" stroke="#D9822B" stroke-width="2"/>
  <text x="125" y="105" text-anchor="middle" font-family="sans-serif" font-size="14" fill="#2C3E50">T(s)/S(s)</text>

  <line x1="170" y1="100" x2="205" y2="100" stroke="#1C2833" stroke-width="2" marker-end="url(#arrow)"/>

  <circle cx="220" cy="100" r="15" fill="#FFFFFF" stroke="#1C2833" stroke-width="2"/>
  <text x="202" y="90" font-family="sans-serif" font-size="16" font-weight="bold" fill="#1C2833">+</text>
  <text x="228" y="125" font-family="sans-serif" font-size="20" font-weight="bold" fill="#1C2833">-</text>

  <line x1="235" y1="100" x2="390" y2="100" stroke="#1C2833" stroke-width="2" marker-end="url(#arrow)"/>
  <text x="315" y="85" font-family="sans-serif" font-size="12" fill="#2C3E50" text-anchor="middle">Commande</text>
  <text x="315" y="110" font-family="sans-serif" font-size="16" font-style="italic" fill="#2C3E50" text-anchor="middle">u</text>

  <rect x="395" y="75" width="90" height="50" rx="6" fill="#F0F4FF" stroke="#1A5276" stroke-width="2"/>
  <text x="440" y="105" text-anchor="middle" font-family="sans-serif" font-size="14" fill="#2C3E50">B(s)/A(s)</text>

  <line x1="485" y1="100" x2="525" y2="100" stroke="#1C2833" stroke-width="2" marker-end="url(#arrow)"/>

  <text x="540" y="30" font-family="sans-serif" font-size="16" font-style="italic" fill="#2C3E50" text-anchor="middle">d</text>
  <line x1="540" y1="35" x2="540" y2="80" stroke="#1C2833" stroke-width="2" marker-end="url(#arrow)"/>

  <circle cx="540" cy="100" r="15" fill="#FFFFFF" stroke="#1C2833" stroke-width="2"/>
  <text x="522" y="90" font-family="sans-serif" font-size="16" font-weight="bold" fill="#1C2833">+</text>
  <text x="548" y="80" font-family="sans-serif" font-size="16" font-weight="bold" fill="#1C2833">+</text>

  <line x1="555" y1="100" x2="680" y2="100" stroke="#1C2833" stroke-width="2" marker-end="url(#arrow)"/>
  <text x="640" y="85" font-family="sans-serif" font-size="12" fill="#2C3E50" text-anchor="middle">Sortie mesurée</text>
  <text x="640" y="110" font-family="sans-serif" font-size="16" font-style="italic" fill="#2C3E50" text-anchor="middle">y</text>

  <circle cx="600" cy="100" r="4" fill="#1C2833"/>

  <line x1="600" y1="100" x2="600" y2="215" stroke="#1C2833" stroke-width="2"/>
  <line x1="600" y1="215" x2="330" y2="215" stroke="#1C2833" stroke-width="2" marker-end="url(#arrow)"/>

  <rect x="235" y="190" width="90" height="50" rx="6" fill="#F0F8F5" stroke="#27805A" stroke-width="2"/>
  <text x="280" y="220" text-anchor="middle" font-family="sans-serif" font-size="14" fill="#2C3E50">R(s)/S(s)</text>

  <line x1="235" y1="215" x2="220" y2="215" stroke="#1C2833" stroke-width="2"/>
  <line x1="220" y1="215" x2="220" y2="120" stroke="#1C2833" stroke-width="2" marker-end="url(#arrow)"/>

</svg>
