<svg xmlns="http://www.w3.org/2000/svg" viewBox="0 0 850 560" width="100%" height="100%">
    <defs>
        <style>
            .grid { stroke: #e0e0e0; stroke-width: 1; stroke-dasharray: 4; }
            .label { font-family: sans-serif; font-size: 14px; font-weight: bold; fill: #333; }
            .clk { fill: none; stroke: #333; stroke-width: 2; }
            .sig { fill: none; stroke: #0055aa; stroke-width: 2; }
            .bus-bg { fill: #f8f9fa; stroke: #333; stroke-width: 1.5; }
            .bus-val { font-family: monospace; font-size: 13px; fill: #111; text-anchor: middle; }
            .bus-x { fill: #e9ecef; stroke: #333; stroke-width: 1.5; }
            .bus-0 { fill: #ffe3e3; stroke: #d9534f; stroke-width: 1.5; }
            .title { font-family: sans-serif; font-size: 18px; font-weight: bold; fill: #2c3e50; }
            .annotation { font-family: sans-serif; font-size: 12px; fill: #d9534f; font-style: italic; }
        </style>
    </defs>

    <rect width="100%" height="100%" fill="white"/>

    <text x="425" y="30" class="title" text-anchor="middle">Chronogramme du Timer (M=3, puis M=2)</text>

    <g class="grid">
        <line x1="150" y1="40" x2="150" y2="540"/>
        <line x1="200" y1="40" x2="200" y2="540"/>
        <line x1="250" y1="40" x2="250" y2="540"/>
        <line x1="300" y1="40" x2="300" y2="540"/>
        <line x1="350" y1="40" x2="350" y2="540"/>
        <line x1="400" y1="40" x2="400" y2="540"/>
        <line x1="450" y1="40" x2="450" y2="540"/>
        <line x1="500" y1="40" x2="500" y2="540"/>
        <line x1="550" y1="40" x2="550" y2="540"/>
        <line x1="600" y1="40" x2="600" y2="540"/>
        <line x1="650" y1="40" x2="650" y2="540"/>
        <line x1="700" y1="40" x2="700" y2="540"/>
        <line x1="750" y1="40" x2="750" y2="540"/>
        <line x1="800" y1="40" x2="800" y2="540"/>
    </g>

    <g class="label">
        <text x="15" y="65">clk</text>
        <text x="15" y="115">M</text>
        <text x="15" y="165">load</text>
        <text x="15" y="215">enable</text>
        <text x="15" y="265">Q (tc)</text>
        <text x="15" y="315">M32</text>
        <text x="15" y="365">R32</text>
        <text x="15" y="415">Mux32</text>
        <text x="15" y="465">OR1</text>
        <text x="15" y="515">C (counter)</text>
    </g>

    <path class="clk" d="M 120 75 L 150 75 L 150 45 L 175 45 L 175 75 L 200 75 L 200 45 L 225 45 L 225 75 L 250 75 L 250 45 L 275 45 L 275 75 L 300 75 L 300 45 L 325 45 L 325 75 L 350 75 L 350 45 L 375 45 L 375 75 L 400 75 L 400 45 L 425 45 L 425 75 L 450 75 L 450 45 L 475 45 L 475 75 L 500 75 L 500 45 L 525 45 L 525 75 L 550 75 L 550 45 L 575 45 L 575 75 L 600 75 L 600 45 L 625 45 L 625 75 L 650 75 L 650 45 L 675 45 L 675 75 L 700 75 L 700 45 L 725 45 L 725 75 L 750 75 L 750 45 L 775 45 L 775 75 L 800 75 L 800 45 L 820 45"/>

    <polygon class="bus-bg" points="120,95 505,95 510,110 505,125 120,125"/>
    <text class="bus-val" x="315" y="114">3</text>
    <polygon class="bus-bg" points="510,110 515,95 820,95 820,125 515,125"/>
    <text class="bus-val" x="665" y="114">2</text>

    <path class="sig" d="M 120 145 L 210 145 L 210 175 L 510 175 L 510 145 L 560 145 L 560 175 L 820 175"/>

    <path class="sig" d="M 120 225 L 210 225 L 210 195 L 820 195"/>

    <path class="sig" d="M 120 275 L 300 275 L 300 245 L 350 245 L 350 275 L 450 275 L 450 245 L 500 245 L 500 275 L 600 275 L 600 245 L 650 245 L 650 275 L 700 275 L 700 245 L 750 245 L 750 275 L 820 275"/>
    
    <text x="325" y="235" class="annotation" text-anchor="middle">Imp. 1</text>
    <text x="475" y="235" class="annotation" text-anchor="middle">Imp. 2</text>
    <text x="625" y="235" class="annotation" text-anchor="middle">Imp. 1</text>
    <text x="725" y="235" class="annotation" text-anchor="middle">Imp. 2</text>

    <polygon class="bus-bg" points="120,295 505,295 510,310 505,325 120,325"/>
    <text class="bus-val" x="315" y="314">2</text>
    <polygon class="bus-bg" points="510,310 515,295 820,295 820,325 515,325"/>
    <text class="bus-val" x="665" y="314">1</text>

    <polygon class="bus-x" points="120,345 195,345 200,360 195,375 120,375"/>
    <text class="bus-val" x="160" y="364">X</text>
    <polygon class="bus-bg" points="200,360 205,345 545,345 550,360 545,375 205,375"/>
    <text class="bus-val" x="375" y="364">2</text>
    <polygon class="bus-bg" points="550,360 555,345 820,345 820,375 555,375"/>
    <text class="bus-val" x="685" y="364">1</text>

    <polygon class="bus-bg" points="120,395 505,395 510,410 505,425 120,425"/>
    <text class="bus-val" x="315" y="414">2</text>
    <polygon class="bus-bg" points="510,410 515,395 820,395 820,425 515,425"/>
    <text class="bus-val" x="665" y="414">1</text>

    <path class="sig" d="M 120 445 L 210 445 L 210 475 L 300 475 L 300 445 L 350 445 L 350 475 L 450 475 L 450 445 L 500 445 L 500 475 L 510 475 L 510 445 L 560 445 L 560 475 L 600 475 L 600 445 L 650 445 L 650 475 L 700 475 L 700 445 L 750 445 L 750 475 L 820 475"/>

    <polygon class="bus-x" points="120,495 195,495 200,510 195,525 120,525"/>
    <text class="bus-val" x="160" y="514">X</text>

    <polygon class="bus-bg" points="200,510 205,495 245,495 250,510 245,525 205,525"/>
    <text class="bus-val" x="225" y="514">2</text>
    <polygon class="bus-bg" points="250,510 255,495 295,495 300,510 295,525 255,525"/>
    <text class="bus-val" x="275" y="514">1</text>
    <polygon class="bus-0" points="300,510 305,495 345,495 350,510 345,525 305,525"/>
    <text class="bus-val" x="325" y="514">0</text>
    
    <polygon class="bus-bg" points="350,510 355,495 395,495 400,510 395,525 355,525"/>
    <text class="bus-val" x="375" y="514">2</text>
    <polygon class="bus-bg" points="400,510 405,495 445,495 450,510 445,525 405,525"/>
    <text class="bus-val" x="425" y="514">1</text>
    <polygon class="bus-0" points="450,510 455,495 495,495 500,510 495,525 455,525"/>
    <text class="bus-val" x="475" y="514">0</text>

    <polygon class="bus-bg" points="500,510 505,495 545,495 550,510 545,525 505,525"/>
    <text class="bus-val" x="525" y="514">2</text>

    <polygon class="bus-bg" points="550,510 555,495 595,495 600,510 595,525 555,525"/>
    <text class="bus-val" x="575" y="514">1</text>
    <polygon class="bus-0" points="600,510 605,495 645,495 650,510 645,525 605,525"/>
    <text class="bus-val" x="625" y="514">0</text>
    
    <polygon class="bus-bg" points="650,510 655,495 695,495 700,510 695,525 655,525"/>
    <text class="bus-val" x="675" y="514">1</text>
    <polygon class="bus-0" points="700,510 705,495 745,495 750,510 745,525 705,525"/>
    <text class="bus-val" x="725" y="514">0</text>
    
    <polygon class="bus-bg" points="750,510 755,495 795,495 800,510 795,525 755,525"/>
    <text class="bus-val" x="775" y="514">1</text>

    <polygon class="bus-0" points="800,510 805,495 820,495 820,525 805,525"/>
</svg>
