<svg xmlns="http://www.w3.org/2000/svg" viewBox="0 0 800 300" width="100%" height="100%">
  <text x="300" y="30" font-family="Arial" font-size="20" font-weight="bold">Registre à décalage SIPO (n bits)</text>

  <line x1="50" y1="220" x2="650" y2="220" stroke="red" stroke-width="2"/>
  <text x="10" y="225" font-family="Arial" font-size="16" fill="red">clk</text>

  <line x1="50" y1="250" x2="650" y2="250" stroke="blue" stroke-width="2"/>
  <text x="10" y="255" font-family="Arial" font-size="16" fill="blue">reset</text>

  <line x1="50" y1="280" x2="650" y2="280" stroke="green" stroke-width="2"/>
  <text x="10" y="285" font-family="Arial" font-size="16" fill="green">enable</text>

  <rect x="150" y="80" width="80" height="100" fill="white" stroke="black" stroke-width="2"/>
  <text x="180" y="135" font-family="Arial" font-size="16">FF 0</text>
  <text x="155" y="105" font-family="Arial" font-size="14">D</text>
  <text x="210" y="105" font-family="Arial" font-size="14">Q</text>
  <polygon points="150,165 160,170 150,175" fill="none" stroke="red" stroke-width="1.5"/>
  
  <line x1="80" y1="100" x2="150" y2="100" stroke="black" stroke-width="2"/>
  <text x="40" y="105" font-family="Arial" font-size="16" font-weight="bold">din</text>
  
  <line x1="165" y1="220" x2="165" y2="170" stroke="red" stroke-width="2"/> <line x1="190" y1="250" x2="190" y2="180" stroke="blue" stroke-width="2"/> <line x1="215" y1="280" x2="215" y2="180" stroke="green" stroke-width="2"/> <line x1="230" y1="100" x2="270" y2="100" stroke="black" stroke-width="2"/>
  <circle cx="250" cy="100" r="4" fill="black"/>
  <line x1="250" y1="100" x2="250" y2="50" stroke="black" stroke-width="2"/>
  <text x="235" y="40" font-family="Arial" font-size="16">dout(0)</text>

  <rect x="270" y="80" width="80" height="100" fill="white" stroke="black" stroke-width="2"/>
  <text x="300" y="135" font-family="Arial" font-size="16">FF 1</text>
  <text x="275" y="105" font-family="Arial" font-size="14">D</text>
  <text x="330" y="105" font-family="Arial" font-size="14">Q</text>
  <polygon points="270,165 280,170 270,175" fill="none" stroke="red" stroke-width="1.5"/>

  <line x1="285" y1="220" x2="285" y2="170" stroke="red" stroke-width="2"/>
  <line x1="310" y1="250" x2="310" y2="180" stroke="blue" stroke-width="2"/>
  <line x1="335" y1="280" x2="335" y2="180" stroke="green" stroke-width="2"/>

  <line x1="350" y1="100" x2="400" y2="100" stroke="black" stroke-width="2"/>
  <circle cx="370" cy="100" r="4" fill="black"/>
  <line x1="370" y1="100" x2="370" y2="50" stroke="black" stroke-width="2"/>
  <text x="355" y="40" font-family="Arial" font-size="16">dout(1)</text>

  <circle cx="430" cy="100" r="3" fill="black"/>
  <circle cx="450" cy="100" r="3" fill="black"/>
  <circle cx="470" cy="100" r="3" fill="black"/>
  <line x1="500" y1="100" x2="520" y2="100" stroke="black" stroke-width="2"/>

  <rect x="520" y="80" width="80" height="100" fill="white" stroke="black" stroke-width="2"/>
  <text x="540" y="135" font-family="Arial" font-size="16">FF n-1</text>
  <text x="525" y="105" font-family="Arial" font-size="14">D</text>
  <text x="580" y="105" font-family="Arial" font-size="14">Q</text>
  <polygon points="520,165 530,170 520,175" fill="none" stroke="red" stroke-width="1.5"/>

  <line x1="535" y1="220" x2="535" y2="170" stroke="red" stroke-width="2"/>
  <line x1="560" y1="250" x2="560" y2="180" stroke="blue" stroke-width="2"/>
  <line x1="585" y1="280" x2="585" y2="180" stroke="green" stroke-width="2"/>

  <line x1="600" y1="100" x2="650" y2="100" stroke="black" stroke-width="2"/>
  <circle cx="620" cy="100" r="4" fill="black"/>
  <line x1="620" y1="100" x2="620" y2="50" stroke="black" stroke-width="2"/>
  <text x="595" y="40" font-family="Arial" font-size="16">dout(n-1)</text>
</svg>
