<svg xmlns="http://www.w3.org/2000/svg" viewBox="0 0 320 220" width="640" height="440">
  <defs>
    <marker id="arrow-red" viewBox="0 0 10 10" refX="8" refY="5" markerWidth="6" markerHeight="6" orient="auto-start-reverse">
      <path d="M 0 0 L 10 5 L 0 10 z" fill="#e00000" />
    </marker>
    <marker id="arrow-blue" viewBox="0 0 10 10" refX="8" refY="5" markerWidth="6" markerHeight="6" orient="auto-start-reverse">
      <path d="M 0 0 L 10 5 L 0 10 z" fill="#2563eb" />
    </marker>
    
    <style>
      .wire { fill: none; stroke: black; stroke-width: 2; }
      .box { fill: none; stroke: black; stroke-width: 2.5; stroke-dasharray: 4, 3; }
      .component { fill: white; stroke: black; stroke-width: 1.5; }
      .text-serif { font-family: "Times New Roman", Times, serif; }
      .text-var { font-size: 24px; text-anchor: middle; }
      .text-v { fill: #2563eb; font-size: 24px; text-anchor: middle; }
      .text-i { fill: #e00000; font-size: 24px; text-anchor: middle; }
      .subscript { font-size: 0.6em; baseline-shift: sub; }
    </style>
  </defs>

  <rect class="box" x="70" y="45" width="180" height="135" />
  <rect x="145" y="25" width="30" height="30" fill="none" /> 
  <text class="text-serif" x="160" y="38" font-size="26" text-anchor="middle">Q</text>

  <line class="wire" x1="30" y1="150" x2="290" y2="150" />

  <line class="wire" x1="30" y1="65" x2="80" y2="65" />
  <line class="wire" x1="140" y1="65" x2="180" y2="65" />
  <line class="wire" x1="240" y1="65" x2="290" y2="65" />

  <line class="wire" x1="160" y1="65" x2="160" y2="85" />
  <line class="wire" x1="160" y1="130" x2="160" y2="150" />

  <rect class="component" x="75" y="50" width="60" height="30" />
  <text class="text-serif text-var" x="105" y="73">Z<tspan class="subscript">1</tspan></text>

  <rect class="component" x="185" y="50" width="60" height="30" />
  <text class="text-serif text-var" x="215" y="73">Z<tspan class="subscript">2</tspan></text>

  <rect class="component" x="145" y="85" width="30" height="45" />
  <text class="text-serif text-var" x="160" y="115">Z</text>

  <line x1="45" y1="145" x2="45" y2="80" stroke="#2563eb" stroke-width="3.5" marker-end="url(#arrow-blue)" />
  <text class="text-serif text-v" x="25" y="120">v<tspan class="subscript">1</tspan></text>

  <line x1="275" y1="145" x2="275" y2="80" stroke="#2563eb" stroke-width="3.5" marker-end="url(#arrow-blue)" />
  <text class="text-serif text-v" x="295" y="120">v<tspan class="subscript">2</tspan></text>

  <line x1="135" y1="145" x2="135" y2="90" stroke="#2563eb" stroke-width="3.5" marker-end="url(#arrow-blue)" />

  <line x1="25" y1="65" x2="65" y2="65" stroke="#e00000" stroke-width="4" marker-end="url(#arrow-red)" />
  <text class="text-serif text-i" x="40" y="45">i<tspan class="subscript">1</tspan></text>

  <line x1="295" y1="65" x2="255" y2="65" stroke="#e00000" stroke-width="4" marker-end="url(#arrow-red)" />
  <text class="text-serif text-i" x="280" y="45">i<tspan class="subscript">2</tspan></text>

  <polygon points="148,132 172,132 160,150" fill="#e00000" />

  <rect x="110" y="165" width="100" height="30" fill="white" />
  <text class="text-serif text-i" x="160" y="188">i<tspan class="subscript">1</tspan> + i<tspan class="subscript">2</tspan></text>

</svg>
