<svg xmlns="http://www.w3.org/2000/svg" viewBox="0 0 320 200" width="640" height="400">
  <defs>
    <marker id="arrow-red" viewBox="0 0 10 10" refX="8" refY="5" markerWidth="6" markerHeight="6" orient="auto-start-reverse">
      <path d="M 0 0 L 10 5 L 0 10 z" fill="#e00000" />
    </marker>
    <marker id="arrow-blue" viewBox="0 0 10 10" refX="8" refY="5" markerWidth="6" markerHeight="6" orient="auto-start-reverse">
      <path d="M 0 0 L 10 5 L 0 10 z" fill="#2563eb" />
    </marker>
    
    <style>
      .wire { fill: none; stroke: black; stroke-width: 2; }
      .box { fill: none; stroke: black; stroke-width: 2.5; stroke-dasharray: 3, 3; }
      .component { fill: white; stroke: black; stroke-width: 1.5; }
      .text-serif { font-family: "Times New Roman", Times, serif; }
      .text-var { font-size: 22px; text-anchor: middle; }
      .text-v { fill: #2563eb; font-size: 22px; text-anchor: middle; }
      .text-i { fill: #e00000; font-size: 22px; text-anchor: middle; }
      .subscript { font-size: 0.7em; baseline-shift: sub; }
    </style>
  </defs>

  <rect class="box" x="80" y="35" width="160" height="135" />
  <text class="text-serif" x="160" y="155" font-size="24" text-anchor="middle">Q</text>

  <line class="wire" x1="40" y1="160" x2="280" y2="160" />

  <line class="wire" x1="40" y1="65" x2="110" y2="65" />
  <line class="wire" x1="170" y1="65" x2="280" y2="65" />

  <line class="wire" x1="100" y1="65" x2="100" y2="95" />
  <line class="wire" x1="100" y1="135" x2="100" y2="160" />
  
  <line class="wire" x1="220" y1="65" x2="220" y2="95" />
  <line class="wire" x1="220" y1="135" x2="220" y2="160" />

  <rect class="component" x="125" y="50" width="70" height="30" />
  <text class="text-serif text-var" x="160" y="72">y</text>

  <rect class="component" x="85" y="90" width="30" height="45" />
  <text class="text-serif text-var" x="100" y="120">y<tspan class="subscript">1</tspan></text>

  <rect class="component" x="205" y="90" width="30" height="45" />
  <text class="text-serif text-var" x="220" y="120">y<tspan class="subscript">2</tspan></text>

  <line x1="45" y1="150" x2="45" y2="80" stroke="#2563eb" stroke-width="3" marker-end="url(#arrow-blue)" />
  <text class="text-serif text-v" x="30" y="120">v<tspan class="subscript">1</tspan></text>

  <line x1="265" y1="150" x2="265" y2="80" stroke="#2563eb" stroke-width="3" marker-end="url(#arrow-blue)" />
  <text class="text-serif text-v" x="280" y="120">v<tspan class="subscript">2</tspan></text>

  <line x1="210" y1="25" x2="110" y2="25" stroke="#2563eb" stroke-width="3" marker-end="url(#arrow-blue)" />
  <text class="text-serif text-v" x="160" y="18">v<tspan class="subscript">1</tspan> − v<tspan class="subscript">2</tspan></text>

  <line x1="35" y1="65" x2="75" y2="65" stroke="#e00000" stroke-width="3.5" marker-end="url(#arrow-red)" />
  <text class="text-serif text-i" x="50" y="45">i<tspan class="subscript">1</tspan></text>

  <line x1="285" y1="65" x2="245" y2="65" stroke="#e00000" stroke-width="3.5" marker-end="url(#arrow-red)" />
  <text class="text-serif text-i" x="270" y="45">i<tspan class="subscript">2</tspan></text>

</svg>
