<svg xmlns="http://www.w3.org/2000/svg" viewBox="0 0 980 360" role="img" aria-labelledby="title desc">
  <title id="title">Synthese EP361</title>
  <desc id="desc">Chaine de revision reliant quadripoles, filtres, amplificateurs et oscillateurs.</desc>
  <rect width="980" height="360" fill="#f8fafc"/>
  <rect x="42" y="64" width="188" height="160" rx="8" fill="#e7f1fb" stroke="#99b9da" stroke-width="2"/>
  <rect x="286" y="64" width="188" height="160" rx="8" fill="#e8f6ef" stroke="#99c9b5" stroke-width="2"/>
  <rect x="530" y="64" width="188" height="160" rx="8" fill="#fff4df" stroke="#e2bd74" stroke-width="2"/>
  <rect x="774" y="64" width="188" height="160" rx="8" fill="#efedf8" stroke="#b6afd9" stroke-width="2"/>
  <path d="M230 144h56M474 144h56M718 144h56" fill="none" stroke="#172033" stroke-width="4" stroke-linecap="round"/>
  <path d="m276 132 12 12-12 12M520 132l12 12-12 12M764 132l12 12-12 12" fill="none" stroke="#172033" stroke-width="4" stroke-linecap="round" stroke-linejoin="round"/>
  <text x="136" y="112" text-anchor="middle" font-family="Inter, Arial, sans-serif" font-size="22" font-weight="700" fill="#172033">Quadripoles</text>
  <text x="136" y="148" text-anchor="middle" font-family="Inter, Arial, sans-serif" font-size="15" fill="#334155">Matrices Y, Z, K</text>
  <text x="136" y="174" text-anchor="middle" font-family="Inter, Arial, sans-serif" font-size="15" fill="#334155">Associations</text>
  <text x="380" y="112" text-anchor="middle" font-family="Inter, Arial, sans-serif" font-size="22" font-weight="700" fill="#172033">Filtres</text>
  <text x="380" y="148" text-anchor="middle" font-family="Inter, Arial, sans-serif" font-size="15" fill="#334155">Bode, ordre</text>
  <text x="380" y="174" text-anchor="middle" font-family="Inter, Arial, sans-serif" font-size="15" fill="#334155">Butterworth</text>
  <text x="624" y="112" text-anchor="middle" font-family="Inter, Arial, sans-serif" font-size="22" font-weight="700" fill="#172033">Amplis</text>
  <text x="624" y="148" text-anchor="middle" font-family="Inter, Arial, sans-serif" font-size="15" fill="#334155">Gain, rendement</text>
  <text x="624" y="174" text-anchor="middle" font-family="Inter, Arial, sans-serif" font-size="15" fill="#334155">Classes A/B</text>
  <text x="868" y="112" text-anchor="middle" font-family="Inter, Arial, sans-serif" font-size="22" font-weight="700" fill="#172033">Oscillateurs</text>
  <text x="868" y="148" text-anchor="middle" font-family="Inter, Arial, sans-serif" font-size="15" fill="#334155">Barkhausen</text>
  <text x="868" y="174" text-anchor="middle" font-family="Inter, Arial, sans-serif" font-size="15" fill="#334155">LC, quartz</text>
  <path d="M112 276c42-82 88-82 132 0s88 82 132 0 88-82 132 0 88 82 132 0 88-82 132 0" fill="none" stroke="#1f5f99" stroke-width="5" stroke-linecap="round"/>
  <text x="490" y="322" text-anchor="middle" font-family="Inter, Arial, sans-serif" font-size="18" font-weight="700" fill="#1f5f99">Du modele au signal analogique stable</text>
</svg>
