<svg xmlns="http://www.w3.org/2000/svg" viewBox="0 0 400 200" width="100%">
  <circle cx="100" cy="100" r="40" fill="white" stroke="black" stroke-width="2"/>
  <text x="100" y="95" font-family="Arial" font-size="14" text-anchor="middle">S0</text>
  <line x1="60" y1="105" x2="140" y2="105" stroke="black" stroke-width="1"/>
  <text x="100" y="125" font-family="Arial" font-size="14" text-anchor="middle">q = 0</text>

  <circle cx="300" cy="100" r="40" fill="white" stroke="black" stroke-width="2"/>
  <text x="300" y="95" font-family="Arial" font-size="14" text-anchor="middle">S1</text>
  <line x1="260" y1="105" x2="340" y2="105" stroke="black" stroke-width="1"/>
  <text x="300" y="125" font-family="Arial" font-size="14" text-anchor="middle">q = 1</text>

  <line x1="20" y1="40" x2="75" y2="75" stroke="black" stroke-width="2" marker-end="url(#arrow)"/>
  <text x="10" y="30" font-family="Arial" font-size="12">reset = 1</text>

  <path d="M 135 80 Q 200 50 265 80" fill="transparent" stroke="black" stroke-width="2" marker-end="url(#arrow)"/>
  <text x="200" y="45" font-family="Arial" font-size="14" text-anchor="middle">t = 1</text>

  <path d="M 265 120 Q 200 150 135 120" fill="transparent" stroke="black" stroke-width="2" marker-end="url(#arrow)"/>
  <text x="200" y="165" font-family="Arial" font-size="14" text-anchor="middle">t = 1</text>

  <path d="M 70 70 C 40 20, 0 80, 60 100" fill="transparent" stroke="black" stroke-width="2" marker-end="url(#arrow)"/>
  <text x="30" y="40" font-family="Arial" font-size="14" text-anchor="middle">t = 0</text>

  <path d="M 330 70 C 360 20, 400 80, 340 100" fill="transparent" stroke="black" stroke-width="2" marker-end="url(#arrow)"/>
  <text x="370" y="40" font-family="Arial" font-size="14" text-anchor="middle">t = 0</text>

  <defs>
    <marker id="arrow" markerWidth="10" markerHeight="10" refX="8" refY="3" orient="auto" markerUnits="strokeWidth">
      <path d="M0,0 L0,6 L9,3 z" fill="black" />
    </marker>
  </defs>
</svg>
