<svg xmlns="http://www.w3.org/2000/svg" viewBox="0 0 400 250" width="100%" height="100%">
  <rect x="100" y="20" width="60" height="80" fill="none" stroke="black" stroke-width="2"/>
  <text x="110" y="40" font-family="Arial" font-size="14">D</text>
  <text x="110" y="80" font-family="Arial" font-size="14">H</text>
  <text x="135" y="60" font-family="Arial" font-size="14">Qa</text>
  <polyline points="100,75 110,80 100,85" fill="none" stroke="black" stroke-width="1.5"/>
  
  <rect x="100" y="140" width="60" height="80" fill="none" stroke="black" stroke-width="2"/>
  <text x="110" y="160" font-family="Arial" font-size="14">D</text>
  <text x="110" y="200" font-family="Arial" font-size="14">H</text>
  <text x="135" y="180" font-family="Arial" font-size="14">Qb</text>
  <polyline points="100,195 110,200 100,205" fill="none" stroke="black" stroke-width="1.5"/>

  <path d="M 240 70 Q 260 100 240 130 Q 280 130 300 100 Q 280 70 240 70" fill="none" stroke="black" stroke-width="2"/>
  <path d="M 230 70 Q 250 100 230 130" fill="none" stroke="black" stroke-width="2"/>
  
  <line x1="20" y1="35" x2="100" y2="35" stroke="black" stroke-width="2"/> <text x="30" y="30" font-family="Arial" font-size="14">E</text>

  <line x1="20" y1="120" x2="80" y2="120" stroke="black" stroke-width="2"/> <text x="30" y="115" font-family="Arial" font-size="14">Horloge</text>
  <polyline points="80,120 80,80 100,80" fill="none" stroke="black" stroke-width="2"/>
  <polyline points="80,120 80,200 100,200" fill="none" stroke="black" stroke-width="2"/>
  
  <polyline points="160,55 180,55 180,155 100,155" fill="none" stroke="black" stroke-width="2"/> <polyline points="180,85 235,85" fill="none" stroke="black" stroke-width="2"/> <polyline points="160,175 200,175 200,115 235,115" fill="none" stroke="black" stroke-width="2"/> <line x1="300" y1="100" x2="330" y2="100" stroke="black" stroke-width="2"/> <text x="340" y="105" font-family="Arial" font-size="14">S</text>
</svg>
