<svg xmlns="http://www.w3.org/2000/svg" viewBox="0 0 350 150" width="100%" height="100%">
  <rect x="200" y="30" width="50" height="70" fill="none" stroke="black" stroke-width="2"/>
  <text x="210" y="50" font-family="Arial" font-size="12">e</text>
  <text x="235" y="70" font-family="Arial" font-size="12">s</text>
  <polyline points="200,85 208,90 200,95" fill="none" stroke="black" stroke-width="1.5"/>
  <text x="210" y="90" font-family="Arial" font-size="10">clk</text>
  
  <path d="M 120 30 L 140 30 A 20 20 0 0 1 140 70 L 120 70 Z" fill="none" stroke="black" stroke-width="2"/>
  <circle cx="120" cy="60" r="3" fill="none" stroke="black"/> 

  <line x1="50" y1="40" x2="120" y2="40" stroke="black" stroke-width="2"/> <text x="20" y="45" font-family="Arial" font-size="14">ina</text>
  <line x1="50" y1="90" x2="200" y2="90" stroke="black" stroke-width="2"/> <text x="20" y="95" font-family="Arial" font-size="14">clk</text>
  
  <line x1="250" y1="60" x2="280" y2="60" stroke="black" stroke-width="2"/>
  <circle cx="270" cy="60" r="4" fill="black"/>
  <text x="290" y="65" font-family="Arial" font-size="14">maf</text>
  <polyline points="270,60 270,120 100,120 100,60 117,60" fill="none" stroke="black" stroke-width="2"/>
  <line x1="160" y1="50" x2="200" y2="50" stroke="black" stroke-width="2"/>
</svg>
