<svg xmlns="http://www.w3.org/2000/svg" viewBox="0 0 750 220" width="100%" height="100%">
  <defs>
    <marker id="arrow3" viewBox="0 0 10 10" refX="9" refY="5" markerWidth="6" markerHeight="6" orient="auto-start-reverse">
      <path d="M 0 0 L 10 5 L 0 10 z" fill="#000" />
    </marker>
  </defs>

  <text x="10" y="125" font-family="Arial" font-size="16" font-weight="bold">c</text>
  <line x1="25" y1="120" x2="70" y2="120" stroke="#000" stroke-width="2" marker-end="url(#arrow3)" />

  <circle cx="80" cy="120" r="10" stroke="#000" stroke-width="2" fill="none" />
  <text x="65" y="110" font-family="Arial" font-size="14">+</text>
  <text x="85" y="145" font-family="Arial" font-size="14">-</text>

  <line x1="90" y1="120" x2="130" y2="120" stroke="#000" stroke-width="2" marker-end="url(#arrow3)" />
  <rect x="130" y="100" width="70" height="40" stroke="#000" stroke-width="2" fill="#fdfd96" />
  <text x="145" y="125" font-family="Arial" font-size="14">R(p)</text>

  <line x1="200" y1="120" x2="260" y2="120" stroke="#000" stroke-width="2" marker-end="url(#arrow3)" />
  <circle cx="270" cy="120" r="10" stroke="#000" stroke-width="2" fill="none" />
  <text x="255" y="110" font-family="Arial" font-size="14">+</text>
  <text x="280" y="110" font-family="Arial" font-size="14">+</text>
  <text x="260" y="75" font-family="Arial" font-size="14" font-weight="bold">d2</text>
  <line x1="270" y1="80" x2="270" y2="105" stroke="#000" stroke-width="2" marker-end="url(#arrow3)" />

  <line x1="280" y1="120" x2="320" y2="120" stroke="#000" stroke-width="2" marker-end="url(#arrow3)" />
  <rect x="320" y="100" width="70" height="40" stroke="#000" stroke-width="2" fill="#aec6cf" />
  <text x="335" y="125" font-family="Arial" font-size="14">H(p)</text>

  <text x="290" y="35" font-family="Arial" font-size="14" font-weight="bold">d1</text>
  <line x1="310" y1="30" x2="360" y2="30" stroke="#000" stroke-width="2" marker-end="url(#arrow3)" />
  <rect x="360" y="10" width="70" height="40" stroke="#000" stroke-width="2" fill="#ffb347" />
  <text x="370" y="35" font-family="Arial" font-size="14">Hd(p)</text>

  <line x1="390" y1="120" x2="480" y2="120" stroke="#000" stroke-width="2" marker-end="url(#arrow3)" />
  <circle cx="490" cy="120" r="10" stroke="#000" stroke-width="2" fill="none" />
  <text x="475" y="110" font-family="Arial" font-size="14">+</text>
  <text x="500" y="110" font-family="Arial" font-size="14">+</text>
  
  <line x1="430" y1="30" x2="490" y2="30" stroke="#000" stroke-width="2" />
  <line x1="490" y1="30" x2="490" y2="105" stroke="#000" stroke-width="2" marker-end="url(#arrow3)" />

  <line x1="500" y1="120" x2="570" y2="120" stroke="#000" stroke-width="2" marker-end="url(#arrow3)" />
  <text x="580" y="125" font-family="Arial" font-size="16" font-weight="bold">y</text>

  <line x1="540" y1="120" x2="540" y2="180" stroke="#000" stroke-width="2" />
  <line x1="540" y1="180" x2="80" y2="180" stroke="#000" stroke-width="2" />
  <line x1="80" y1="180" x2="80" y2="135" stroke="#000" stroke-width="2" marker-end="url(#arrow3)" />
</svg>
