<svg xmlns="http://www.w3.org/2000/svg" viewBox="0 0 750 200" width="100%" height="100%">
  <defs>
    <marker id="arrow1" viewBox="0 0 10 10" refX="9" refY="5" markerWidth="6" markerHeight="6" orient="auto-start-reverse">
      <path d="M 0 0 L 10 5 L 0 10 z" fill="#000" />
    </marker>
  </defs>

  <text x="10" y="85" font-family="Arial" font-size="14" font-weight="bold">cy</text>
  <line x1="30" y1="80" x2="70" y2="80" stroke="#000" stroke-width="2" marker-end="url(#arrow1)" />

  <rect x="70" y="60" width="50" height="40" stroke="#000" stroke-width="2" fill="#fff8dc" />
  <text x="90" y="85" font-family="Arial" font-size="14">T</text>

  <line x1="120" y1="80" x2="160" y2="80" stroke="#000" stroke-width="2" marker-end="url(#arrow1)" />
  <circle cx="170" cy="80" r="10" stroke="#000" stroke-width="2" fill="none" />
  <text x="155" y="70" font-family="Arial" font-size="14">+</text>
  <text x="175" y="105" font-family="Arial" font-size="14">-</text>

  <line x1="180" y1="80" x2="210" y2="80" stroke="#000" stroke-width="2" marker-end="url(#arrow1)" />
  <rect x="210" y="60" width="50" height="40" stroke="#000" stroke-width="2" fill="#fff8dc" />
  <text x="225" y="85" font-family="Arial" font-size="14">1/S</text>

  <line x1="260" y1="80" x2="310" y2="80" stroke="#000" stroke-width="2" marker-end="url(#arrow1)" />
  <text x="280" y="75" font-family="Arial" font-size="14">u</text>
  <circle cx="320" cy="80" r="10" stroke="#000" stroke-width="2" fill="none" />
  <text x="305" y="70" font-family="Arial" font-size="14">+</text>
  
  <text x="315" y="30" font-family="Arial" font-size="14" font-weight="bold">Γ</text>
  <line x1="320" y1="35" x2="320" y2="70" stroke="#000" stroke-width="2" marker-end="url(#arrow1)" />

  <line x1="330" y1="80" x2="370" y2="80" stroke="#000" stroke-width="2" marker-end="url(#arrow1)" />
  <rect x="370" y="60" width="80" height="40" stroke="#000" stroke-width="2" fill="#e6f2ff" />
  <text x="385" y="85" font-family="Arial" font-size="14">Moteur</text>

  <line x1="450" y1="80" x2="550" y2="80" stroke="#000" stroke-width="2" marker-end="url(#arrow1)" />
  <text x="560" y="85" font-family="Arial" font-size="14" font-weight="bold">y</text>

  <line x1="510" y1="80" x2="510" y2="150" stroke="#000" stroke-width="2" />
  <line x1="510" y1="150" x2="300" y2="150" stroke="#000" stroke-width="2" marker-end="url(#arrow1)" />
  <rect x="250" y="130" width="50" height="40" stroke="#000" stroke-width="2" fill="#fff8dc" />
  <text x="270" y="155" font-family="Arial" font-size="14">R</text>
  <line x1="250" y1="150" x2="170" y2="150" stroke="#000" stroke-width="2" />
  <line x1="170" y1="150" x2="170" y2="90" stroke="#000" stroke-width="2" marker-end="url(#arrow1)" />
</svg>
