<svg xmlns="http://www.w3.org/2000/svg" viewBox="0 0 650 180" width="100%" height="100%">
  <defs>
    <marker id="arrow1" viewBox="0 0 10 10" refX="9" refY="5" markerWidth="6" markerHeight="6" orient="auto-start-reverse">
      <path d="M 0 0 L 10 5 L 0 10 z" fill="#000" />
    </marker>
  </defs>

  <text x="10" y="85" font-family="Arial" font-size="14" font-weight="bold">cons</text>
  <line x1="50" y1="80" x2="90" y2="80" stroke="#000" stroke-width="2" marker-end="url(#arrow1)" />

  <circle cx="100" cy="80" r="10" stroke="#000" stroke-width="2" fill="none" />
  <text x="85" y="70" font-family="Arial" font-size="14">+</text>
  <text x="105" y="105" font-family="Arial" font-size="14">-</text>

  <line x1="110" y1="80" x2="150" y2="80" stroke="#000" stroke-width="2" marker-end="url(#arrow1)" />
  <rect x="150" y="60" width="70" height="40" stroke="#000" stroke-width="2" fill="#fff8dc" />
  <text x="165" y="85" font-family="Arial" font-size="14">R(p)</text>

  <line x1="220" y1="80" x2="280" y2="80" stroke="#000" stroke-width="2" marker-end="url(#arrow1)" />
  <text x="245" y="70" font-family="Arial" font-size="14" font-weight="bold">u</text>

  <circle cx="290" cy="80" r="10" stroke="#000" stroke-width="2" fill="none" />
  <text x="275" y="70" font-family="Arial" font-size="14">+</text>
  <text x="300" y="70" font-family="Arial" font-size="14">+</text>

  <text x="285" y="30" font-family="Arial" font-size="16" font-weight="bold">δ</text>
  <line x1="290" y1="35" x2="290" y2="65" stroke="#000" stroke-width="2" marker-end="url(#arrow1)" />

  <line x1="300" y1="80" x2="340" y2="80" stroke="#000" stroke-width="2" marker-end="url(#arrow1)" />
  <rect x="340" y="60" width="70" height="40" stroke="#000" stroke-width="2" fill="#e6f2ff" />
  <text x="355" y="85" font-family="Arial" font-size="14">H(p)</text>

  <line x1="410" y1="80" x2="510" y2="80" stroke="#000" stroke-width="2" marker-end="url(#arrow1)" />
  <text x="520" y="85" font-family="Arial" font-size="14" font-weight="bold">pos</text>

  <line x1="470" y1="80" x2="470" y2="140" stroke="#000" stroke-width="2" />
  <line x1="470" y1="140" x2="100" y2="140" stroke="#000" stroke-width="2" />
  <line x1="100" y1="140" x2="100" y2="95" stroke="#000" stroke-width="2" marker-end="url(#arrow1)" />
</svg>
