<svg xmlns="http://www.w3.org/2000/svg" viewBox="0 0 600 200" width="100%" height="100%">
  <defs>
    <marker id="arrow2" viewBox="0 0 10 10" refX="9" refY="5" markerWidth="6" markerHeight="6" orient="auto-start-reverse">
      <path d="M 0 0 L 10 5 L 0 10 z" fill="#000" />
    </marker>
  </defs>

  <text x="20" y="105" font-family="Arial" font-size="14">U(p)</text>
  <line x1="60" y1="100" x2="110" y2="100" stroke="#000" stroke-width="2" marker-end="url(#arrow2)" />

  <rect x="110" y="80" width="80" height="40" stroke="#000" stroke-width="2" fill="#fff2cc" />
  <text x="135" y="105" font-family="Arial" font-size="14">T(p)</text>

  <text x="240" y="25" font-family="Arial" font-size="14">CR(p)</text>
  <line x1="260" y1="30" x2="260" y2="50" stroke="#000" stroke-width="2" marker-end="url(#arrow2)" />
  
  <rect x="220" y="50" width="80" height="40" stroke="#000" stroke-width="2" fill="#f8cecc" />
  <text x="235" y="75" font-family="Arial" font-size="14">T_δ(p)</text>
  <line x1="260" y1="90" x2="260" y2="120" stroke="#000" stroke-width="2" marker-end="url(#arrow2)" />

  <circle cx="260" cy="130" r="10" stroke="#000" stroke-width="2" fill="none" />
  <text x="245" y="125" font-family="Arial" font-size="12">+</text>
  <text x="275" y="125" font-family="Arial" font-size="12">+</text>
  
  <line x1="190" y1="100" x2="250" y2="100" stroke="#000" stroke-width="2" marker-end="url(#arrow2)" />
  <line x1="250" y1="100" x2="250" y2="125" stroke="#000" stroke-width="2" /> <line x1="250" y1="130" x2="250" y2="130" stroke="#000" stroke-width="2" /> <path d="M 190 100 L 220 100 L 220 130 L 250 130" fill="none" stroke="#000" stroke-width="2" marker-end="url(#arrow2)" />
  
  <line x1="270" y1="130" x2="350" y2="130" stroke="#000" stroke-width="2" marker-end="url(#arrow2)" />
  <text x="360" y="135" font-family="Arial" font-size="14">W(p)</text>
</svg>
