<svg xmlns="http://www.w3.org/2000/svg" viewBox="0 0 800 230" width="100%" height="100%">
  <defs>
    <marker id="arrow2" viewBox="0 0 10 10" refX="9" refY="5" markerWidth="6" markerHeight="6" orient="auto-start-reverse">
      <path d="M 0 0 L 10 5 L 0 10 z" fill="#000" />
    </marker>
  </defs>

  <text x="10" y="125" font-family="Arial" font-size="14" font-weight="bold">c</text>
  <line x1="25" y1="120" x2="60" y2="120" stroke="#000" stroke-width="2" marker-end="url(#arrow2)" />

  <rect x="60" y="100" width="40" height="40" stroke="#000" stroke-width="2" fill="#fff8dc" />
  <text x="75" y="125" font-family="Arial" font-size="14">T</text>

  <line x1="100" y1="120" x2="130" y2="120" stroke="#000" stroke-width="2" marker-end="url(#arrow2)" />
  <circle cx="140" cy="120" r="10" stroke="#000" stroke-width="2" fill="none" />
  <text x="125" y="110" font-family="Arial" font-size="14">+</text>
  <text x="145" y="155" font-family="Arial" font-size="14">-</text>

  <line x1="150" y1="120" x2="180" y2="120" stroke="#000" stroke-width="2" marker-end="url(#arrow2)" />
  <rect x="180" y="100" width="40" height="40" stroke="#000" stroke-width="2" fill="#fff8dc" />
  <text x="190" y="125" font-family="Arial" font-size="14">1/S</text>

  <line x1="220" y1="120" x2="280" y2="120" stroke="#000" stroke-width="2" marker-end="url(#arrow2)" />
  <circle cx="290" cy="120" r="10" stroke="#000" stroke-width="2" fill="none" />
  <text x="275" y="110" font-family="Arial" font-size="14">+</text>
  
  <text x="280" y="75" font-family="Arial" font-size="14" font-weight="bold">d2</text>
  <line x1="290" y1="80" x2="290" y2="110" stroke="#000" stroke-width="2" marker-end="url(#arrow2)" />

  <line x1="300" y1="120" x2="330" y2="120" stroke="#000" stroke-width="2" marker-end="url(#arrow2)" />
  <rect x="330" y="100" width="60" height="40" stroke="#000" stroke-width="2" fill="#e6f2ff" />
  <text x="345" y="125" font-family="Arial" font-size="14">H(p)</text>

  <text x="330" y="35" font-family="Arial" font-size="14" font-weight="bold">d1</text>
  <line x1="350" y1="30" x2="390" y2="30" stroke="#000" stroke-width="2" marker-end="url(#arrow2)" />
  <rect x="390" y="10" width="60" height="40" stroke="#000" stroke-width="2" fill="#ffe6e6" />
  <text x="400" y="35" font-family="Arial" font-size="14">Hd(p)</text>

  <line x1="390" y1="120" x2="480" y2="120" stroke="#000" stroke-width="2" marker-end="url(#arrow2)" />
  <circle cx="490" cy="120" r="10" stroke="#000" stroke-width="2" fill="none" />
  <text x="475" y="110" font-family="Arial" font-size="14">+</text>
  
  <line x1="450" y1="30" x2="490" y2="30" stroke="#000" stroke-width="2" />
  <line x1="490" y1="30" x2="490" y2="110" stroke="#000" stroke-width="2" marker-end="url(#arrow2)" />

  <line x1="500" y1="120" x2="600" y2="120" stroke="#000" stroke-width="2" marker-end="url(#arrow2)" />
  <text x="610" y="125" font-family="Arial" font-size="14" font-weight="bold">y</text>

  <line x1="550" y1="120" x2="550" y2="190" stroke="#000" stroke-width="2" />
  <line x1="550" y1="190" x2="300" y2="190" stroke="#000" stroke-width="2" marker-end="url(#arrow2)" />
  <rect x="260" y="170" width="40" height="40" stroke="#000" stroke-width="2" fill="#fff8dc" />
  <text x="275" y="195" font-family="Arial" font-size="14">R</text>
  <line x1="260" y1="190" x2="140" y2="190" stroke="#000" stroke-width="2" />
  <line x1="140" y1="190" x2="140" y2="130" stroke="#000" stroke-width="2" marker-end="url(#arrow2)" />
</svg>
