<svg xmlns="http://www.w3.org/2000/svg" viewBox="0 0 750 200" width="100%" height="100%">
  <defs>
    <marker id="arrow2" viewBox="0 0 10 10" refX="9" refY="5" markerWidth="6" markerHeight="6" orient="auto-start-reverse">
      <path d="M 0 0 L 10 5 L 0 10 z" fill="#000" />
    </marker>
  </defs>

  <text x="10" y="85" font-family="Arial" font-size="14" font-weight="bold">cy</text>
  <line x1="30" y1="80" x2="70" y2="80" stroke="#000" stroke-width="2" marker-end="url(#arrow2)" />

  <circle cx="80" cy="80" r="10" stroke="#000" stroke-width="2" fill="none" />
  <text x="65" y="70" font-family="Arial" font-size="14">+</text>
  <text x="85" y="105" font-family="Arial" font-size="14">-</text>

  <line x1="90" y1="80" x2="130" y2="80" stroke="#000" stroke-width="2" marker-end="url(#arrow2)" />
  <rect x="130" y="60" width="60" height="40" stroke="#000" stroke-width="2" fill="#fff8dc" />
  <text x="145" y="85" font-family="Arial" font-size="14">C(s)</text>

  <line x1="190" y1="80" x2="230" y2="80" stroke="#000" stroke-width="2" marker-end="url(#arrow2)" />
  <circle cx="240" cy="80" r="10" stroke="#000" stroke-width="2" fill="none" />
  <text x="225" y="70" font-family="Arial" font-size="14">+</text>
  <text x="250" y="70" font-family="Arial" font-size="14">-</text> <text x="232" y="30" font-family="Arial" font-size="14" font-weight="bold">Γr</text>
  <line x1="240" y1="35" x2="240" y2="65" stroke="#000" stroke-width="2" marker-end="url(#arrow2)" />

  <line x1="250" y1="80" x2="290" y2="80" stroke="#000" stroke-width="2" marker-end="url(#arrow2)" />
  <rect x="290" y="55" width="85" height="50" stroke="#000" stroke-width="2" fill="#e6f2ff" />
  <text x="315" y="75" font-family="Arial" font-size="14">K</text>
  <line x1="300" y1="82" x2="365" y2="82" stroke="#000" stroke-width="1" />
  <text x="305" y="98" font-family="Arial" font-size="14">1+Ts</text>

  <line x1="375" y1="80" x2="430" y2="80" stroke="#000" stroke-width="2" marker-end="url(#arrow2)" />
  <text x="395" y="70" font-family="Arial" font-size="14" font-weight="bold">v</text>

  <rect x="430" y="60" width="50" height="40" stroke="#000" stroke-width="2" fill="#f2e6ff" />
  <text x="445" y="85" font-family="Arial" font-size="14">1/s</text>

  <line x1="480" y1="80" x2="570" y2="80" stroke="#000" stroke-width="2" marker-end="url(#arrow2)" />
  <text x="580" y="85" font-family="Arial" font-size="14" font-weight="bold">y</text>

  <line x1="530" y1="80" x2="530" y2="150" stroke="#000" stroke-width="2" />
  <line x1="530" y1="150" x2="80" y2="150" stroke="#000" stroke-width="2" />
  <line x1="80" y1="150" x2="80" y2="95" stroke="#000" stroke-width="2" marker-end="url(#arrow2)" />
</svg>
